<svg xmlns="http://www.w3.org/2000/svg" xmlns:xlink="http://www.w3.org/1999/xlink" width="70.464" height="68.883" viewBox="0 0 70.464 68.883">
  <defs>
    <clipPath id="clip-path">
      <rect id="Rectangle_2598" data-name="Rectangle 2598" width="70.464" height="68.883" transform="translate(-2 -2)" stroke="#000" stroke-width="1"/>
    </clipPath>
    <clipPath id="clip-path-2">
      <rect id="Rectangle_2599" data-name="Rectangle 2599" width="47.107" height="35.228" transform="translate(-2 -2)" fill="#f7b81e" stroke="#f7b81e" stroke-width="1"/>
    </clipPath>
  </defs>
  <g id="hm-ok" transform="translate(-856.268 -220.084)">
    <g id="Group_5357" data-name="Group 5357" transform="translate(858.268 222.084)">
      <g id="Group_5356" data-name="Group 5356" transform="translate(0 0)" clip-path="url(#clip-path)">
        <path id="Path_43229" data-name="Path 43229" d="M53.658,6.9c-.066-.042-1.881-1.274-2.113-1.42A36.313,36.313,0,0,0,36.035.218c0,.025-2.112-.165-2.12-.168-.629-.031-1.26-.05-1.9-.05A35.981,35.981,0,0,0,21.425,1.569C8.61,5.512,0,17.707,0,31.914a34.473,34.473,0,0,0,.293,4.452c.084.643.18,1.282.3,1.914A32.068,32.068,0,0,0,8.955,54.612C15.41,61.331,24.521,64.883,35.3,64.883c10.7,0,29.453-10.3,31.04-30.814,0-.014.1-2.078.1-2.081,0-.243.02-.48.02-.726A29.569,29.569,0,0,0,56.074,8.829Q54.91,7.807,53.658,6.9m10.87,24.364c0,21.1-18.736,31.685-29.225,31.685-10.242,0-18.871-3.346-24.953-9.677A30.6,30.6,0,0,1,1.936,31.914c0-13.352,8.061-24.8,20.059-28.5A34.04,34.04,0,0,1,32.019,1.936,34.437,34.437,0,0,1,54.8,10.284a27.658,27.658,0,0,1,9.73,20.979" transform="translate(0 0)" stroke="#000" stroke-width="1"/>
      </g>
    </g>
    <g id="Group_5359" data-name="Group 5359" transform="translate(869.946 239.936)">
      <g id="Group_5358" data-name="Group 5358" transform="translate(0 0)" clip-path="url(#clip-path-2)">
        <path id="Path_43230" data-name="Path 43230" d="M20.1,31.228a.9.9,0,0,0,.667-.294q1.646-1.793,3.276-3.582c6.277-6.87,12.2-13.36,18.788-19.714a.906.906,0,0,0-.024-1.326C42.157,5.731,41.5,5.163,40.833,4.6A47.114,47.114,0,0,1,36.254.3.905.905,0,0,0,35.005.2c-3.033,2.474-5.9,5.186-8.664,7.809-2.228,2.11-4.525,4.286-6.9,6.324-3.161-3.478-6.518-6.838-9.989-10a.905.905,0,0,0-1.189-.027C5.57,6.553,2.99,9.037.495,11.439l-.217.209A.9.9,0,0,0,0,12.293a.911.911,0,0,0,.268.65C6.176,18.81,12.595,25.06,19.508,31.009a.9.9,0,0,0,.591.219M8.82,6.216c3.435,3.16,6.752,6.516,9.867,9.986a.907.907,0,0,0,1.257.088c2.65-2.232,5.187-4.636,7.642-6.961,2.542-2.408,5.165-4.892,7.905-7.178a55.819,55.819,0,0,0,4.161,3.821c.406.348.811.7,1.215,1.046C34.5,13.212,28.509,19.776,22.7,26.131q-1.335,1.463-2.679,2.931C13.661,23.542,7.713,17.773,2.2,12.31,4.344,10.25,6.55,8.144,8.82,6.216" transform="translate(0 0)" fill="#f7b81e" stroke="#f7b81e" stroke-width="1"/>
      </g>
    </g>
  </g>
</svg>
