<svg version="1.2" xmlns="http://www.w3.org/2000/svg" viewBox="0 0 20 20" width="20" height="20"><style>.s0{fill:#0e1019}.s1{fill:#f7b81e}.s2{fill:none;stroke:#f7b81e;stroke-width:.6}</style><path class="s0" d="m9.9 0c7.4 0 10 2.6 10 9.9c0 7.4-2.6 10-10 10c-7.3 0-9.9-2.6-9.9-10c0-7.3 2.6-9.9 9.9-9.9z" /><path class="s1" d="m9.7 8.3h2.2v0.8h-2.2z" /><path class="s1" d="m9.7 6.8h4.9v0.8h-4.9z" /><path class="s1" d="m9.7 9.8h3.2v0.7h-3.2z" /><path class="s1" d="m9.7 11.3h1.7v0.7h-1.7z" /><path class="s1" d="m9.7 12.8h4.9v0.7h-4.9z" /><path class="s1" d="m8 6.9q0.1 0 0.1 0.1q0.1 0 0.1 0.1q0 0 0 0.1v6q0 0 0 0.1q0 0.1-0.1 0.1q0 0.1-0.1 0.1q-0.1 0-0.2 0q0 0-0.1 0q-0.1 0-0.1-0.1q-0.1 0-0.1-0.1q0-0.1 0-0.1v-5q-0.1 0.1-0.1 0.2q-0.1 0.1-0.1 0.2q-0.1 0.1-0.1 0.2q-0.1 0.1-0.1 0.2l-1.8 2.9q0 0 0 0q-0.1 0-0.1 0q0 0 0 0q0 0 0 0l-1.2-1.9q0-0.1-0.1-0.2q0-0.1 0-0.2q-0.1 0-0.1-0.1q0-0.1 0-0.2c0-0.4 0-0.5 0-0.9l0.5 0.7c0.2 0.4 0.7 1.2 0.9 1.5q0 0 0 0q0 0 0 0q0 0 0.1 0q0 0 0 0c0.1-0.3 0.6-1.1 0.9-1.5l1.3-2.1q0 0 0-0.1q0.1 0 0.1 0q0 0 0.1 0q0-0.1 0.1-0.1q0.1 0 0.2 0.1z" /><path class="s2" d="m9.9 2.4c5.7 0 7.7 2 7.7 7.7c0 5.7-2 7.7-7.7 7.7c-5.7 0-7.7-2-7.7-7.7c0-5.7 2-7.7 7.7-7.7z" /></svg>