<svg xmlns="http://www.w3.org/2000/svg" width="68.849" height="68.874" viewBox="0 0 68.849 68.874">
  <g id="logo" transform="translate(6724 1270.022)">
    <g id="Group_5355" data-name="Group 5355" transform="translate(-6734.823 -1280.802)">
      <g id="Group_5417" data-name="Group 5417" transform="translate(10.823 10.78)">
        <g id="Group_107" data-name="Group 107" transform="translate(8.873 20.661)">
          <g id="Group_89" data-name="Group 89" transform="translate(24.478)">
            <rect id="Rectangle_159" data-name="Rectangle 159" width="9.362" height="3.121" rx="0.856" transform="translate(0 6.241)" fill="#fea900" stroke="#fea900" stroke-width="0.5"/>
            <rect id="Rectangle_163" data-name="Rectangle 163" width="20.803" height="3.121" rx="0.856" fill="#fea900" stroke="#fea900" stroke-width="0.5"/>
            <rect id="Rectangle_160" data-name="Rectangle 160" width="13.521" height="3.121" rx="0.856" transform="translate(0 12.482)" fill="#fea900" stroke="#fea900" stroke-width="0.5"/>
            <rect id="Rectangle_161" data-name="Rectangle 161" width="7.282" height="3.121" rx="0.856" transform="translate(0 18.723)" fill="#fea900" stroke="#fea900" stroke-width="0.5"/>
            <rect id="Rectangle_162" data-name="Rectangle 162" width="20.803" height="3.121" rx="0.856" transform="translate(0 24.962)" fill="#fea900" stroke="#fea900" stroke-width="0.5"/>
          </g>
          <g id="Group_100" data-name="Group 100" transform="translate(0 0.086)">
            <path id="Path_246" data-name="Path 246" d="M-768.11,533.022h-.326a1.5,1.5,0,0,0-1.276.709l-5.477,8.84c-1.044,1.7-3.019,4.936-3.7,6.05a.274.274,0,0,1-.235.134.273.273,0,0,1-.235-.134c-.678-1.121-2.652-4.391-3.7-6.092l-1.852-2.977c-.075,1.692-.12,2.105-.12,3.689a6.905,6.905,0,0,0,.729,2.916l4.892,7.964a.327.327,0,0,0,.274.148.326.326,0,0,0,.273-.148l7.435-12.077a35.73,35.73,0,0,0,1.8-3.2v20.674a1.5,1.5,0,0,0,1.5,1.5,1.5,1.5,0,0,0,1.5-1.5v-25a1.5,1.5,0,0,0-1.482-1.5Z" transform="translate(785.025 -533.022)" fill="#fea900" stroke="#fea900" stroke-width="0.5"/>
          </g>
        </g>
        <g id="Group_106" data-name="Group 106" transform="translate(0 0)">
          <path id="Path_266" data-name="Path 266" d="M38.174,3.75A58.856,58.856,0,0,1,53.906,5.515a24.1,24.1,0,0,1,10.9,6.032,24.1,24.1,0,0,1,6.032,10.9A58.857,58.857,0,0,1,72.6,38.174,58.9,58.9,0,0,1,70.834,53.91a24.13,24.13,0,0,1-6.031,10.9,24.1,24.1,0,0,1-10.9,6.042,58.742,58.742,0,0,1-15.732,1.77,58.742,58.742,0,0,1-15.732-1.77,24.1,24.1,0,0,1-10.9-6.042,24.131,24.131,0,0,1-6.031-10.9A58.9,58.9,0,0,1,3.75,38.174,58.864,58.864,0,0,1,5.515,22.443a24.094,24.094,0,0,1,6.032-10.9,24.093,24.093,0,0,1,10.9-6.032A58.861,58.861,0,0,1,38.174,3.75Zm0,64.889c11.717,0,19.282-2.111,23.808-6.642s6.631-12.1,6.631-23.823-2.107-19.286-6.63-23.809-12.089-6.63-23.809-6.63-19.286,2.107-23.81,6.63-6.63,12.089-6.63,23.809S9.842,57.467,14.366,62,26.457,68.639,38.174,68.639Z" transform="translate(-3.75 -3.75)" fill="#fea900"/>
        </g>
      </g>
    </g>
  </g>
</svg>
